<?xml version="1.0" encoding="UTF-8"?>
<!DOCTYPE svg PUBLIC "-//W3C//DTD SVG 1.1//EN" "http://www.w3.org/Graphics/SVG/1.1/DTD/svg11.dtd">
<!-- Creator: CorelDRAW X8 -->
<svg xmlns="http://www.w3.org/2000/svg" xml:space="preserve" width="26.156mm" height="26.156mm" version="1.1" style="shape-rendering:geometricPrecision; text-rendering:geometricPrecision; image-rendering:optimizeQuality; fill-rule:evenodd; clip-rule:evenodd"
viewBox="0 0 2616 2616"
 xmlns:xlink="http://www.w3.org/1999/xlink">
 <defs>
  <style type="text/css">
   <![CDATA[
    .fil0 {fill:white;fill-rule:nonzero}
   ]]>
  </style>
 </defs>
 <g id="Capa_x0020_1">
  <metadata id="CorelCorpID_0Corel-Layer"/>
  <path class="fil0" d="M0 172c0,-26 6,-50 16,-72l0 0 2 -4 0 0 1 -3 1 -1 2 -3 0 -1 2 -3 0 -1 2 -2 1 -2 1 -1 1 -2 1 -2 1 -2 2 -2 1 -1 2 -3 0 0 2 -3 1 -1c7,-9 15,-17 24,-24l1 -1 3 -2 0 0 3 -2 1 -1 2 -2 2 -1 2 -1 2 -1 1 -1 2 -1 2 -2 1 0 3 -2 1 0 3 -2 1 -1 3 -1 0 0 4 -2 0 0c22,-10 46,-16 72,-16l694 0c95,0 172,77 172,172 0,96 -77,173 -172,173l-278 0 458 457c67,67 67,176 0,244 -68,67 -177,67 -244,0l-457 -458 0 278c0,95 -77,172 -173,172 -95,0 -172,-77 -172,-172l0 -694zm1570 1642c-67,-68 -67,-177 0,-244 67,-67 176,-67 244,0l457 457 0 -278c0,-95 77,-172 172,-172 95,0 173,77 173,172l0 694c0,26 -6,51 -16,73l0 0 -2 3 0 1 -2 3 -1 1 -1 3 0 0 -2 3 -1 1 -1 3 -1 1 -1 2 -1 2 -2 2 -1 1 -1 3 -1 0 -2 3 0 1 -3 3 0 0c-8,9 -16,17 -25,25l0 0 -3 3 -1 0 -3 2 0 1 -3 1 -1 1 -2 2 -2 1 -2 1 -1 1 -3 1 -1 1 -3 2 0 0 -3 1 -1 1 -3 2 -1 0 -3 2 0 0c-22,10 -47,16 -73,16l-694 0c-95,0 -172,-78 -172,-173 0,-95 77,-172 172,-172l278 0 -457 -457zm244 -768c-68,67 -177,67 -244,0 -67,-68 -67,-177 0,-244l457 -457 -278 0c-95,0 -172,-77 -172,-173 0,-95 77,-172 172,-172l694 0c26,0 51,6 73,16l0 0 3 2 1 0 3 1 1 1 3 2 0 0 3 2 1 0 3 2 1 1 2 1 2 1 2 1 1 1 3 2 0 1 3 2 1 0 3 2 0 1c9,7 17,15 25,24l0 1 3 3 0 0 2 3 1 1 1 2 1 2 2 2 1 2 1 1 1 2 1 2 1 1 2 3 0 1 1 3 1 1 2 3 0 0 2 4 0 0c10,22 16,46 16,72l0 694c0,95 -78,172 -173,172 -95,0 -172,-77 -172,-172l0 -278 -457 458zm-1012 524c67,-67 176,-67 244,0 67,67 67,176 0,244l-458 457 278 0c95,0 172,77 172,172 0,95 -77,173 -172,173l-694 0c-26,0 -50,-6 -72,-16l0 0 -4 -2 0 0 -3 -2 -1 -1 -3 -1 -1 0 -3 -2 -1 -1 -2 -1 -2 -1 -1 -1 -2 -1 -2 -2 -2 -1 -2 -1 -1 -1 -3 -2 0 0 -3 -3 -1 0c-9,-8 -17,-16 -24,-25l-1 0 -2 -3 0 -1 -2 -3 -1 0 -2 -3 -1 -1 -1 -2 -1 -2 -1 -2 -1 -1 -2 -3 0 -1 -2 -3 0 0 -2 -3 -1 -1 -1 -3 0 -1 -2 -3 0 0c-10,-22 -16,-47 -16,-73l0 -694c0,-95 77,-172 172,-172 96,0 173,77 173,172l0 278 457 -457z"/>
 </g>
</svg>
