<?xml version="1.0" encoding="UTF-8"?>
<!DOCTYPE svg PUBLIC "-//W3C//DTD SVG 1.1//EN" "http://www.w3.org/Graphics/SVG/1.1/DTD/svg11.dtd">
<!-- Creator: CorelDRAW X8 -->
<svg xmlns="http://www.w3.org/2000/svg" xml:space="preserve" width="27.5mm" height="27.5mm" version="1.1" style="shape-rendering:geometricPrecision; text-rendering:geometricPrecision; image-rendering:optimizeQuality; fill-rule:evenodd; clip-rule:evenodd"
viewBox="0 0 2750 2750"
 xmlns:xlink="http://www.w3.org/1999/xlink"
 xmlns:dc="http://purl.org/dc/elements/1.1/"
 xmlns:cc="http://creativecommons.org/ns#"
 xmlns:rdf="http://www.w3.org/1999/02/22-rdf-syntax-ns#"
 xmlns:svg="http://www.w3.org/2000/svg">
 <defs>
  <style type="text/css">
   <![CDATA[
    .fil0 {fill:white}
   ]]>
  </style>
 </defs>
 <g id="Capa_x0020_1">
  <metadata id="CorelCorpID_0Corel-Layer"/>
  <path class="fil0" d="M1619 451l-717 -151c-37,-8 -73,6 -96,36 -23,30 -26,68 -9,101l104 204c-145,82 -264,197 -349,334 -93,151 -145,327 -145,509 0,267 109,509 284,684 175,176 417,284 684,284 264,0 504,-106 679,-278 174,-172 284,-410 289,-674 1,-110 -86,-201 -196,-202 -110,-2 -201,86 -203,196 -2,155 -67,294 -170,395 -102,101 -243,163 -399,163 -156,0 -299,-64 -401,-166 -103,-103 -167,-245 -167,-402 0,-109 30,-212 85,-299 47,-76 111,-141 190,-189l133 262c17,33 50,53 88,52 38,-1 70,-22 85,-57l299 -669c12,-27 11,-56 -2,-83 -14,-26 -37,-44 -66,-50z"/>
 </g>
</svg>
