<?xml version="1.0" encoding="UTF-8"?>
<!DOCTYPE svg PUBLIC "-//W3C//DTD SVG 1.1//EN" "http://www.w3.org/Graphics/SVG/1.1/DTD/svg11.dtd">
<!-- Creator: CorelDRAW X8 -->
<svg xmlns="http://www.w3.org/2000/svg" xml:space="preserve" width="27.5mm" height="27.5mm" version="1.1" style="shape-rendering:geometricPrecision; text-rendering:geometricPrecision; image-rendering:optimizeQuality; fill-rule:evenodd; clip-rule:evenodd"
viewBox="0 0 2750 2750"
 xmlns:xlink="http://www.w3.org/1999/xlink"
 xmlns:dc="http://purl.org/dc/elements/1.1/"
 xmlns:cc="http://creativecommons.org/ns#"
 xmlns:rdf="http://www.w3.org/1999/02/22-rdf-syntax-ns#"
 xmlns:svg="http://www.w3.org/2000/svg">
 <defs>
  <style type="text/css">
   <![CDATA[
    .fil1 {fill:#FFC931}
    .fil2 {fill:white}
    .fil0 {fill:#CD8503;fill-rule:nonzero}
   ]]>
  </style>
    <mask id="id0">
  <linearGradient id="id1" gradientUnits="userSpaceOnUse" x1="1776.7" y1="506.46" x2="1490.95" y2="1501.3">
   <stop offset="0" style="stop-opacity:1; stop-color:white"/>
   <stop offset="1" style="stop-opacity:0; stop-color:white"/>
  </linearGradient>
     <rect style="fill:url(#id1)" x="101" y="90" width="2548" height="2425"/>
    </mask>
 </defs>
 <g id="Capa_x0020_1">
  <metadata id="CorelCorpID_0Corel-Layer"/>
  <g id="_139269943968">
   <path id="path14" class="fil0" d="M2711 1236l-551 538c-8,7 -14,15 -19,23l118 688c14,82 1,334 -153,253l-682 -359c-31,-16 -67,-16 -98,0l-682 359c-154,81 -167,-171 -153,-253l118 -688c-5,-8 -11,-16 -19,-23l-551 -538c-39,-38 -67,-303 59,-321l762 -111c34,-5 64,-27 79,-58l341 -690c39,-79 151,-79 190,0l341 690c15,31 45,53 79,58l762 111c126,18 98,283 59,321z"/>
   <path class="fil1" d="M2637 1017l-762 -110c-68,-10 -127,-53 -158,-115l-340 -690 -1 -1c0,-1 -2,-1 -2,0l-1 1 -340 690c-31,62 -90,105 -158,115l-762 110 -1 1c-1,0 -1,1 -1,2l1 1 551 537c49,48 72,118 60,186l-130 759c0,0 0,0 0,1 0,0 1,1 2,1l1 -1 681 -358c61,-32 135,-32 196,0l681 358 1 1c1,0 2,-1 2,-1 0,-1 0,-1 0,-1l-130 -759c-12,-68 11,-138 60,-186l551 -537 1 -1c0,-1 0,-2 -1,-2l-1 -1z"/>
   <path class="fil2" style="mask:url(#id0)" d="M2637 1017l-762 -110c-68,-10 -127,-53 -158,-115l-340 -690 -1 -1c0,-1 -2,-1 -2,0l-1 1 -340 690c-31,62 -90,105 -158,115l-762 110 -1 1c-1,0 -1,1 -1,2l1 1 551 537c49,48 72,118 60,186l-130 759c0,0 0,0 0,1 0,0 1,1 2,1l1 -1 681 -358c61,-32 135,-32 196,0l681 358 1 1c1,0 2,-1 2,-1 0,-1 0,-1 0,-1l-130 -759c-12,-68 11,-138 60,-186l551 -537 1 -1c0,-1 0,-2 -1,-2l-1 -1z"/>
  </g>
 </g>
</svg>
